<svg width="1035" height="445" viewBox="0 0 1035 445" fill="none" xmlns="http://www.w3.org/2000/svg">
<g clip-path="url(#clip0_20_2)">
<path d="M707 26H745L744 33L733 61L734 68L754 126L767 163L784 212L800 257L809 282V283H758L742 239L736 223L690 222L692 213L703 185L704 183H721L708 147L705 140L703 142L681 199L664 243L649 282L648 283L633 284H600L599 282L614 242L636 185L652 143L683 62L696 29L697 27L707 26Z" fill="black"/>
<path d="M906 58H932L947 61L962 67L973 73L982 80L990 87L994 93L984 117L981 120L975 110L966 100L952 91L939 86L930 84H908L893 88L880 95L869 104L860 116L854 129L851 140L850 156L853 173L859 187L867 198L874 205L884 212L895 217L907 220L926 221H976L988 222V176H951V142H1030V248H910L894 245L878 239L865 231L855 223L846 214L836 199L829 183L825 167L824 159V145L827 128L831 116L838 102L847 90L859 78L873 69L889 62L906 58Z" fill="black"/>
<path d="M420 27H474L480 43L499 98L513 138L534 199L539 213L538 219L523 257L513 282H511L492 229L479 192L461 142L439 80L420 28V27Z" fill="black"/>
<path d="M917 15L920 18L929 36L950 40L964 45L968 44L984 33L989 35L1011 50L1010 56L1000 81L996 79L986 70L972 61L957 54L938 49L932 48H905L884 53L865 62L851 72L846 77H844L842 81L835 89L827 102L821 114L816 131L814 147V156L816 173L822 193L831 210L841 223L852 234L865 243L881 251L897 256L908 258L929 259L928 264L920 286L919 288L889 286L885 285L884 283L881 263L865 256L850 247L846 246L828 254L824 253L811 239L805 232L806 228L817 210L809 191L805 176L790 171L782 168V147L783 136L799 131L805 130L807 119L813 103L815 99L814 93L804 77L805 73L817 59L824 51L829 52L847 60L858 53L874 45L881 42L883 21L886 19L917 15Z" fill="#FC5900"/>
<path d="M613 26H630L644 27L641 37L626 77L618 97L607 126L586 181L571 220L558 254L547 282L545 284H512L511 282H513L516 273L527 244L539 214L573 126C579.248 109.598 582.752 100.402 589 84L607 37L611 27L613 26Z" fill="black"/>
<path d="M661 27H680L677 36L660 81L640 133L621 183L601 235L585 276L582 283H563L569 266L585 225L605 172L623 125L642 75L660 28L661 27Z" fill="#FC5900"/>
<path d="M782 221L788 223L805 271L809 283H758L742 239L736 222L782 221Z" fill="black"/>
<path d="M592 26L595 27L584 56L565 106L546 155L541 167L539 168L532 147L533 138L550 93L569 43L575 28L576 27L592 26Z" fill="#FC5900"/>
<path d="M421.724 407V307.312H448.742C455.992 307.312 461.259 309.087 464.545 312.637C467.868 316.148 469.529 321.964 469.529 330.082V334.443C469.529 339.126 468.679 342.921 466.98 345.828C465.319 348.736 462.77 350.643 459.334 351.549C463.827 352.682 466.829 355.344 468.34 359.535C469.888 363.689 470.662 368.768 470.662 374.771C470.662 381.229 470.058 386.874 468.849 391.707C467.641 396.54 465.451 400.298 462.279 402.979C459.107 405.66 454.595 407 448.742 407H421.724ZM441.209 344.865H445.287C447.137 344.865 448.327 344.148 448.855 342.713C449.384 341.278 449.648 339.56 449.648 337.559V327.533C449.648 324.324 448.232 322.719 445.4 322.719H441.209V344.865ZM443.191 389.441C448.364 389.441 450.951 386.987 450.951 382.078V369.617C450.951 366.785 450.517 364.557 449.648 362.934C448.817 361.272 447.231 360.441 444.89 360.441H441.209V389.328C442.039 389.404 442.7 389.441 443.191 389.441ZM506.993 407L516.622 307.312H550.437L559.896 407H541.034L539.618 390.914H527.611L526.364 407H506.993ZM529.027 374.998H538.089L533.728 324.305H532.821L529.027 374.998ZM598.493 407V307.312H618.997L628.173 355.061V307.312H647.43V407H627.946L617.977 357.156V407H598.493ZM686.141 407V388.875L708.967 325.664H688.35V307.312H729.981V324.758L706.758 388.648H729.018V407H686.141ZM766.086 407L775.715 307.312H809.529L818.988 407H800.127L798.711 390.914H786.703L785.457 407H766.086ZM788.119 374.998H797.181L792.82 324.305H791.914L788.119 374.998ZM864.665 407V326.457H852.827V307.312H896.441V326.457H884.603V407H864.665ZM943.024 407V326.457H931.186V307.312H974.8V326.457H962.962V407H943.024ZM1011.92 407V307.312H1031.18V407H1011.92Z" fill="black"/>
<g clip-path="url(#clip1_20_2)">
<path fill-rule="evenodd" clip-rule="evenodd" d="M155.978 0.588226H162.347L163.939 1.11921L168.716 4.30512L169.777 7.49104V18.6417L171.37 19.7037L176.677 24.4826L181.454 28.1995L183.046 26.6065H185.169L189.946 30.3234L197.908 36.6952L205.338 42.5361L214.361 49.4389L219.669 53.6868L222.323 55.2797L222.854 53.6868L227.63 52.0938L229.223 52.6248L231.876 56.8727L238.246 66.9614L243.022 75.4572L249.922 78.1121L268.499 84.4839L273.807 87.1389L279.114 109.971L284.422 132.273L290.791 160.415L291.853 160.946L302.468 163.07L303.529 169.442L305.652 199.177L321.575 199.708V157.76L329.537 157.229V140.237L330.067 139.706H340.152L340.683 140.237V147.14L340.152 157.229H345.459L348.113 157.76L348.644 165.194V199.177L360.321 199.708L365.098 200.77L369.875 203.425L373.59 207.673L375.713 213.513L376.774 221.478V270.329L376.244 284.665L375.713 290.506L374.121 297.94L371.998 303.25L367.221 308.029L361.382 311.215H357.667L359.259 313.339L360.321 318.648L360.852 319.179H383.674L387.39 319.71L390.574 320.772L399.597 325.02V326.082L390.043 327.144L370.405 328.206L349.706 329.268L327.944 330.33L299.283 331.923L292.914 332.985L285.483 335.64L276.46 340.95H206.4V344.136L205.338 346.791L211.708 346.26L212.769 347.322L212.238 349.977L245.676 350.508V347.322L246.207 346.791H271.153L270.091 348.915L265.845 357.941L264.253 360.065L191.539 359.534L191.008 358.472L171.9 357.941L168.185 352.101L162.347 342.543L154.385 330.33L86.9785 329.799L86.4478 328.206L90.6938 323.958L94.9399 320.772L134.747 320.241L135.809 319.71L139.524 315.994L146.424 310.684L152.262 307.498L154.916 306.436V286.789L162.877 285.727L163.939 276.701L174.023 180.061L176.146 162.008L177.208 161.477L192.069 158.822L226.569 152.45L231.346 151.919L228.692 133.866L224.977 106.785L214.361 105.723L165 100.413L151.731 99.3515L150.139 103.068L144.301 117.936L133.686 142.892L125.724 162.008L125.193 165.725L128.909 167.849L139.524 173.689L138.993 176.875L138.462 189.619L133.155 195.991L128.378 201.832L123.07 209.266L117.763 219.354L114.047 229.443L111.924 238.47V248.558L112.455 250.151L111.924 252.275L108.209 252.806L111.394 265.019L113.517 274.577H106.086L105.555 273.515L101.84 259.709L100.778 253.337L90.1631 254.399L95.4707 274.046L94.9399 275.108H88.04L87.5093 274.577L84.3247 262.895L82.2017 253.868L80.6094 254.399L74.771 254.93V256.523L79.5479 274.046L79.0171 275.108H72.1172L71.5864 274.577L66.2788 255.461H56.1943L60.4404 271.391L60.9712 275.108H53.5405L49.2944 260.24L47.7021 255.992L40.2715 256.523L40.8022 257.585L43.9868 269.798L45.0483 275.639H37.6177L37.0869 274.577L32.3101 257.054H23.8179L28.5947 276.17L25.9409 276.701H21.6948L21.1641 276.17L19.041 269.798L14.7949 256.523L9.4873 244.842L5.77197 234.753L1.52588 217.761L0.464355 208.735V195.46L2.05664 184.309L5.77197 171.035L10.0181 161.477L14.7949 153.512L16.3872 152.981L34.9639 152.45H66.2788V151.388L73.1787 139.706L80.6094 125.901L85.3862 117.405L85.917 114.219L83.7939 113.157V110.502L87.5093 103.599L94.9399 90.3248L103.432 74.9262L110.863 61.6516L117.232 50.5009L123.601 38.8192L130.501 26.6065L136.87 14.3938L140.585 9.08399L145.893 4.83611L155.978 0.588226ZM185.169 170.504L221.792 163.601L236.653 160.946V176.344L235.592 221.478L234.53 254.93L233.469 281.479L232.938 283.603H172.431V280.949L173.493 271.391L176.677 242.187L181.985 194.398L184.639 171.035L185.169 170.504ZM90.1631 164.132L30.7178 165.725H21.1641L17.9795 173.689L14.7949 186.964L13.2026 196.522V215.106L14.7949 225.726L17.4487 235.815L20.6333 245.903H31.7793L65.2173 244.311L100.248 243.249L101.84 242.187L107.147 226.257L111.924 215.106L117.763 204.487L123.07 196.522L129.97 188.026L132.093 185.902L128.909 186.433L120.947 190.681L113.517 197.584L107.678 205.018L103.432 212.451L99.186 222.54L96.0015 231.567L94.9399 229.974L92.8169 223.071L90.1631 210.327L89.1016 200.77V176.875L90.1631 164.132ZM247.269 161.477H250.453L282.299 169.442L293.445 172.097L294.506 175.282L295.037 187.495L297.16 222.54V232.629L288.137 235.284L279.645 239.532L274.868 243.78L271.684 248.558L269.561 254.399V282.01L268.499 283.603H244.084V276.17L244.615 259.709L246.207 189.088L247.269 161.477ZM299.814 242.718L296.629 243.249L288.668 246.434L283.36 250.682L281.237 253.337L280.707 254.399V265.019L281.237 295.285H240.899L166.593 294.754L166.062 295.285V300.595L291.322 301.126L291.853 300.595L292.383 291.568L292.914 255.461L293.976 250.151L296.629 245.904L299.814 243.78V242.718ZM168.185 28.7304H169.777L176.677 34.0403V36.6952L178.27 37.2262L183.577 41.4741L193.131 48.9079L206.931 59.5276L214.361 65.3684L216.484 68.0234L215.954 69.6163H206.4L199.5 69.0853L176.146 68.0234L166.593 66.9614V61.6515L168.185 28.7304ZM130.501 333.516H124.663L121.478 334.578L119.886 336.702L90.1631 337.233L89.1016 334.047H80.0786L77.4248 338.295L74.2402 346.791V348.384H144.301L148.016 338.295L149.608 334.047L130.501 333.516ZM117.763 371.747H141.647L142.178 372.278L143.77 379.712L144.301 385.553H97.5938L77.4248 385.022L74.2402 375.995L73.7095 371.747H85.3862L86.4478 372.278V374.933H117.232L117.763 371.747ZM263.191 365.375H242.492L241.961 365.906V370.154H204.277L203.746 365.375H191.008L191.539 377.057L192.069 378.65H262.13L263.191 365.375ZM72.6479 354.225L80.0786 353.694L81.1401 354.225L81.6709 356.879L111.924 357.41L112.455 354.225H142.178L141.647 365.906L141.116 366.437H72.6479L72.1172 355.286L72.6479 354.225ZM146.955 390.862H128.378L126.786 393.517L96.5322 394.048V390.862H81.6709L82.7324 393.517L90.6938 401.482L96.0015 403.606L103.963 404.137H154.385L153.324 401.482L149.078 394.048L146.955 390.862ZM244.084 386.084H262.661L263.191 386.615L265.845 397.765L198.438 398.296L197.377 397.234L195.254 391.925L193.662 386.084H205.869V390.332L243.022 389.801L244.084 386.084ZM256.822 405.199V409.447H219.138V405.199H203.215L204.277 407.323L210.115 412.633L215.954 416.881L241.961 417.412H263.191L279.114 416.881L277.522 414.757H276.46V413.695L273.807 411.04L270.622 405.73L269.561 405.199H256.822ZM123.601 73.8642L125.724 71.2093V72.8022L121.478 83.4219L118.293 92.4487L110.332 113.157L107.147 121.653L103.963 128.025L100.778 129.087H95.4707L88.04 128.556L88.5708 125.901L91.7554 121.122L96.5322 121.653V120.591L98.6553 116.874L106.086 104.13L110.332 97.2275L118.293 82.8909L123.601 73.8642Z" fill="#FC5900"/>
</g>
</g>
<defs>
<clipPath id="clip0_20_2">
<rect width="1035" height="445" fill="white"/>
</clipPath>
<clipPath id="clip1_20_2">
<rect width="400" height="418" fill="white"/>
</clipPath>
</defs>
</svg>
